<svg role="img" aria-label="BBB Accredited Buisness" class="imageStyle" xmlns="http://www.w3.org/2000/svg" width="79.836" height="30.393" viewBox="0 0 79.836 30.393"><defs><style>.bbb{fill:#d3dff2;fill-rule:evenodd;}</style></defs><g transform="translate(0 0.001)"><path class="bbb" d="M20.422,22.512H10.364L10,23.558h2.679L13.191,25H17.6l.51-1.444h2.68Z" transform="translate(-1.702 -4.54)"></path><path class="bbb" d="M12.709,14.164a2.348,2.348,0,0,0,.518,3.27l2.358,1.723a.591.591,0,0,1,.13.82l.355.258,1.245-1.729a2.335,2.335,0,0,0,.445-1.37,2.368,2.368,0,0,0-.03-.373,2.322,2.322,0,0,0-.933-1.527L14.44,13.513a.585.585,0,0,1-.234-.381.809.809,0,0,1-.006-.094.574.574,0,0,1,.111-.341h0l-.354-.259-1.246,1.729" transform="translate(-2.088 -2.383)"></path><path class="bbb" d="M14.38,5.634a3.382,3.382,0,0,0-.644,1.987,3.515,3.515,0,0,0,.043.541,3.379,3.379,0,0,0,1.353,2.215l2.963,2.158a1.811,1.811,0,0,1,.726,1.188,1.9,1.9,0,0,1,.022.289,1.813,1.813,0,0,1-.345,1.065l.283.207,2.336-3.246A3.408,3.408,0,0,0,20.365,7.3L16.786,4.682a1.053,1.053,0,0,1-.231-1.464l-.284-.207Z" transform="translate(-2.338 -0.743)"></path><path class="bbb" d="M9.982,31.842c.565,0,.9-.2.9-.634v-.017c0-.393-.29-.635-.946-.635H8.462v1.285Zm-.34-2.355c.565,0,.922-.184.922-.619v-.016c0-.385-.3-.6-.84-.6H8.462v1.236ZM7.216,27.123h2.7a2.1,2.1,0,0,1,1.52.517,1.347,1.347,0,0,1,.4.994v.018a1.361,1.361,0,0,1-.764,1.261,1.427,1.427,0,0,1,1.088,1.436v.017c0,1.069-.864,1.6-2.176,1.6H7.216Z" transform="translate(-1.228 -4.928)"></path><path class="bbb" d="M16.607,31.842c.565,0,.906-.2.906-.634v-.017c0-.393-.291-.635-.947-.635H15.088v1.285Zm-.34-2.355c.565,0,.922-.184.922-.619v-.016c0-.385-.3-.6-.839-.6H15.088v1.236Zm-2.426-2.364h2.7a2.1,2.1,0,0,1,1.52.517,1.35,1.35,0,0,1,.4.994v.018a1.36,1.36,0,0,1-.764,1.261,1.428,1.428,0,0,1,1.088,1.436v.017c0,1.069-.863,1.6-2.176,1.6H13.842Z" transform="translate(-2.356 -4.928)"></path><path class="bbb" d="M23.234,31.842c.564,0,.9-.2.9-.634v-.017c0-.393-.291-.635-.947-.635H21.713v1.285Zm-.341-2.355c.565,0,.922-.184.922-.619v-.016c0-.385-.3-.6-.839-.6H21.713v1.236Zm-2.424-2.364h2.7a2.1,2.1,0,0,1,1.521.517,1.351,1.351,0,0,1,.4.994v.018a1.36,1.36,0,0,1-.764,1.261,1.428,1.428,0,0,1,1.088,1.436v.017c0,1.069-.864,1.6-2.176,1.6H20.469Z" transform="translate(-3.532 -4.928)"></path><path class="bbb" d="M27.365,32.867h-.192v.263h.2c.1,0,.153-.053.153-.13s-.061-.133-.158-.133m.164.4.218.321h-.229l-.19-.288h-.155v.288h-.2v-.9h.4c.213,0,.349.109.349.3a.278.278,0,0,1-.192.279m-.206-.852a.75.75,0,1,0,.739.748.74.74,0,0,0-.739-.748m0,1.593a.835.835,0,1,1,.6-.246.843.843,0,0,1-.6.246" transform="translate(-4.568 -5.813)"></path><path class="bbb" d="M59.955,13.453v-.014c0-.48-.332-.726-.874-.726h-1.1v1.459H59.1c.542,0,.852-.29.852-.719" transform="translate(-10 -2.423)"></path><path class="bbb" d="M41.53,13.071l-.672,1.648H42.2Z" transform="translate(-7.047 -2.485)"></path><path class="bbb" d="M42.111,23.128v-.014c0-.334-.26-.523-.729-.523h-1.1v1.075h1.025c.491,0,.8-.16.8-.537" transform="translate(-6.948 -4.127)"></path><path class="bbb" d="M71.484,14.259v-.014a1.456,1.456,0,0,0-1.524-1.532H69.1v3.064h.859a1.444,1.444,0,0,0,1.524-1.517" transform="translate(-11.92 -2.425)"></path><path class="bbb" d="M89.166,12.713h-.859v3.064h.859A1.444,1.444,0,0,0,90.69,14.26v-.015a1.456,1.456,0,0,0-1.524-1.532" transform="translate(-15.244 -2.425)"></path><path class="bbb" d="M41.569,25.006H40.284v1.118H41.6c.491,0,.787-.174.787-.552v-.014c0-.341-.253-.552-.823-.552" transform="translate(-6.949 -4.544)"></path><path class="bbb" d="M76.616,12.1a2.53,2.53,0,0,1-2.68,2.535H71.972V9.562h1.965a2.519,2.519,0,0,1,2.68,2.52ZM71.4,14.631H67.559V9.562h3.8v.992h-2.7v1.029h2.376v.992H68.66V13.64H71.4ZM67.121,10.59H65.587v4.041h-1.11V10.59H62.944V9.562h4.177ZM65.739,21.336c0,1.007-.764,1.572-1.851,1.572a3.2,3.2,0,0,1-2.139-.811l.656-.79a2.308,2.308,0,0,0,1.505.616c.454,0,.727-.181.727-.478V21.43c0-.282-.173-.427-1.015-.644-1.015-.261-1.671-.543-1.671-1.55v-.015a1.58,1.58,0,0,1,1.764-1.528,2.908,2.908,0,0,1,1.873.645l-.576.84a2.358,2.358,0,0,0-1.311-.5c-.425,0-.648.2-.648.442v.014c0,.333.215.442,1.087.666,1.023.268,1.6.637,1.6,1.521Zm-4.125,0c0,1.007-.764,1.572-1.85,1.572a3.2,3.2,0,0,1-2.139-.811l.656-.79a2.308,2.308,0,0,0,1.505.616c.454,0,.727-.181.727-.478V21.43c0-.282-.173-.427-1.015-.644-1.015-.261-1.671-.543-1.671-1.55v-.015a1.58,1.58,0,0,1,1.764-1.528,2.907,2.907,0,0,1,1.872.645l-.576.84a2.357,2.357,0,0,0-1.311-.5c-.424,0-.648.2-.648.442v.014c0,.333.216.442,1.087.666,1.022.268,1.6.637,1.6,1.521Zm-4.218,1.5H53.558v-5.07h3.8v.992h-2.7v1.029h2.377v.992H54.659v1.065H57.4Zm-4.635,0h-.943l-2.441-3.223v3.223h-1.1v-5.07H49.3l2.362,3.121V17.766h1.1ZM.455,26.129V4.816A4.2,4.2,0,0,1,4.753.735H27.316V30.211H4.753a4.2,4.2,0,0,1-4.3-4.082Zm47.525-11.5H46.87V9.562h2.3c1.188,0,1.9.63,1.9,1.673v.014A1.574,1.574,0,0,1,50,12.821l1.231,1.81h-1.3l-1.08-1.622H47.98ZM43.6,20.786c-1.015-.261-1.671-.543-1.671-1.55v-.015A1.58,1.58,0,0,1,43.7,17.693a2.907,2.907,0,0,1,1.872.645l-.576.84a2.358,2.358,0,0,0-1.311-.5c-.425,0-.648.2-.648.442v.014c0,.333.216.442,1.087.666,1.023.268,1.6.637,1.6,1.521v.014c0,1.007-.764,1.572-1.85,1.572a3.2,3.2,0,0,1-2.139-.811l.656-.79a2.306,2.306,0,0,0,1.5.616c.454,0,.728-.181.728-.478V21.43c0-.282-.173-.427-1.016-.644Zm2.721,2.049H47.43v-5.07H46.323ZM44.367,13.69a1.816,1.816,0,0,0,1.325-.594l.705.717a2.655,2.655,0,0,1-4.652-1.7V12.1a2.711,2.711,0,0,1,4.616-1.84l-.705.818a1.857,1.857,0,0,0-1.289-.572,1.5,1.5,0,0,0-1.462,1.579V12.1a1.5,1.5,0,0,0,1.462,1.593Zm-7.824,7.74v.014c0,.927-.749,1.39-1.887,1.39h-2.4V17.766H34.6c1.03,0,1.664.514,1.664,1.311v.014a1.18,1.18,0,0,1-.662,1.094,1.237,1.237,0,0,1,.943,1.245Zm.627-6.8H36.01l-.461-1.137H33.417l-.461,1.137h-1.13l2.16-5.106h1.022Zm1.993,7.256c.677,0,1.087-.413,1.087-1.217v-2.9h1.109V20.63a2.035,2.035,0,0,1-2.211,2.288,2.006,2.006,0,0,1-2.182-2.252v-2.9h1.109v2.868c0,.826.411,1.253,1.087,1.253Zm.447-8.2a1.813,1.813,0,0,0,1.325-.594l.706.717a2.655,2.655,0,0,1-4.653-1.7V12.1A2.711,2.711,0,0,1,41.6,10.26l-.706.818a1.855,1.855,0,0,0-1.289-.572,1.5,1.5,0,0,0-1.462,1.579V12.1a1.5,1.5,0,0,0,1.462,1.593Zm15.534-2.107v.992H52.767v1.065H55.5v.992H51.665V9.562h3.8v.992h-2.7v1.029Zm.934-2.02h1.966a2.519,2.519,0,0,1,2.68,2.52V12.1a2.53,2.53,0,0,1-2.68,2.535H56.077Zm5.27,5.07h1.109V9.562h-1.11ZM75.243.283H51.978v0H4.753A4.655,4.655,0,0,0,0,4.816V26.129a4.655,4.655,0,0,0,4.752,4.54H51.978v-.006H75.243a4.488,4.488,0,0,0,4.593-4.375V4.657A4.487,4.487,0,0,0,75.243.283Z" transform="translate(0 -0.278)"></path></g></svg>