<svg xmlns="http://www.w3.org/2000/svg" width="40" height="40" viewBox="0 0 40 40"><defs><style>.a{fill:#fff;}.b{fill:#09357a;}</style></defs><path class="a" d="M513.33,488.07a20,20,0,1,1-20,20,20,20,0,0,1,20-20Z" transform="translate(-493.33 -488.07)"/><path class="b" d="M516.86,516.79h-7.05a5.21,5.21,0,0,1-5.2-5.2v-7a5.22,5.22,0,0,1,5.2-5.2h7.05a5.21,5.21,0,0,1,5.19,5.2v7A5.2,5.2,0,0,1,516.86,516.79Zm-7.05-15.68a3.44,3.44,0,0,0-3.44,3.44v7a3.44,3.44,0,0,0,3.44,3.44h7.05a3.45,3.45,0,0,0,3.44-3.44v-7a3.45,3.45,0,0,0-3.44-3.44Zm3.52,11.47a4.51,4.51,0,1,1,4.51-4.51,4.51,4.51,0,0,1-4.51,4.51Zm0-7.27a2.76,2.76,0,1,0,2.76,2.76A2.76,2.76,0,0,0,513.33,505.31Zm4.52-.64a1.08,1.08,0,1,1,1.08-1.08h0a1.08,1.08,0,0,1-1.08,1.09Z" transform="translate(-493.33 -488.07)"/></svg>