<svg role="img" aria-label="SmartLabel Icon" class="imageStyle" xmlns="http://www.w3.org/2000/svg" width="94.26" height="19.601" viewBox="0 0 94.26 19.601"><defs><style>.sl{fill:#FFF;}</style></defs><g transform="translate(0.038 0.03)"><path class="sl" d="M176.3,305.406a3.342,3.342,0,0,0,2.779,1.319,3.75,3.75,0,0,0,1.146-.157,3,3,0,0,0,.9-.455,2.054,2.054,0,0,0,.785-1.633,1.49,1.49,0,0,0-.377-1.052,3.067,3.067,0,0,0-.879-.628,6.937,6.937,0,0,0-1.1-.408c-.377-.11-.738-.236-1.052-.361a2.751,2.751,0,0,1-.769-.44.7.7,0,0,1-.267-.6.985.985,0,0,1,.141-.549,1.186,1.186,0,0,1,.377-.361,1.98,1.98,0,0,1,.534-.2,2.888,2.888,0,0,1,.644-.063,1.965,1.965,0,0,1,1.021.235,3.444,3.444,0,0,1,.628.455l.612-.6a2.722,2.722,0,0,0-.9-.628,3.1,3.1,0,0,0-1.35-.283,3.563,3.563,0,0,0-1.021.141,2.718,2.718,0,0,0-.832.393,2.145,2.145,0,0,0-.565.628,1.689,1.689,0,0,0-.22.832,1.5,1.5,0,0,0,.377,1.068,2.8,2.8,0,0,0,.879.628,6.6,6.6,0,0,0,1.115.408,8.239,8.239,0,0,1,1.052.361,2.459,2.459,0,0,1,.769.471.789.789,0,0,1,.267.644,1.1,1.1,0,0,1-.487.958,2.289,2.289,0,0,1-1.382.377,2.906,2.906,0,0,1-.785-.094,2.352,2.352,0,0,1-.6-.251,1.892,1.892,0,0,1-.44-.33,2.694,2.694,0,0,1-.3-.33Z" transform="translate(-151.79 -292.814)"></path><path class="sl" d="M228.67,306.584v-4.726a2.05,2.05,0,1,0-4.1,0v4.726h-.879v-4.726a2.05,2.05,0,1,0-4.1,0v4.726H218.7v-4.726A2.8,2.8,0,0,1,221.636,299a2.837,2.837,0,0,1,2.5,1.335,2.96,2.96,0,0,1,5.433,1.523v4.726Z" transform="translate(-187.533 -292.814)"></path><path class="sl" d="M298.4,299.779a2.99,2.99,0,0,0-2.92,3.03,2.921,2.921,0,1,0,5.841,0,2.99,2.99,0,0,0-2.921-3.03m0,6.877a3.879,3.879,0,1,1,3.8-3.847v3.69h-.879v-1.256a3.706,3.706,0,0,1-2.92,1.413" transform="translate(-251.516 -292.729)"></path><path class="sl" d="M351.3,306.584V302.14a2.923,2.923,0,0,1,3.156-3.14c.173,0,.345.016.518.031l.157.016v.816l-.2-.016a3.02,3.02,0,0,0-.377-.016,2.145,2.145,0,0,0-2.387,2.308v4.443Z" transform="translate(-299.313 -292.814)"></path><path class="sl" d="M385.587,299.434a2.252,2.252,0,0,1-1.759-.738,2.826,2.826,0,0,1-.628-1.9v-6.3h.895V292h1.947v.864h-1.931v3.941c0,1.193.55,1.806,1.633,1.806h.314v.816l-.173.016a.977.977,0,0,0-.3-.016" transform="translate(-326.205 -285.648)"></path><path class="sl" d="M412.439,290.794a2.2,2.2,0,0,1-1.727-.722,2.814,2.814,0,0,1-.612-1.868v-7.8h.895v7.8c0,1.162.534,1.759,1.586,1.759h.126l.2-.016v.816l-.173.016a1.8,1.8,0,0,1-.3.016" transform="translate(-348.881 -277.134)"></path><path class="sl" d="M435.137,299.8a2.91,2.91,0,0,0-2.842,2.967,2.845,2.845,0,1,0,2.842-2.967m0,6.751a3.824,3.824,0,1,1,3.737-3.8v3.627h-.895v-1.209a3.617,3.617,0,0,1-2.842,1.382" transform="translate(-366.837 -292.729)"></path><path class="sl" d="M489.937,284.2a2.91,2.91,0,0,0-2.842,2.968,2.845,2.845,0,1,0,2.842-2.968m0,6.752a3.77,3.77,0,0,1-3.737-3.8V280.4h.895v4.318a3.631,3.631,0,0,1,2.842-1.4,3.816,3.816,0,1,1,0,7.632" transform="translate(-413.032 -277.134)"></path><path class="sl" d="M543.874,299.979a3.053,3.053,0,0,1,3.266,2.449h-6a2.921,2.921,0,0,1,2.732-2.449m3.14,3.784a3.025,3.025,0,0,1-1.7,1.884,2.88,2.88,0,0,1-1.146.236,3.057,3.057,0,0,1-3.046-2.638h6.893a7.326,7.326,0,0,0-.094-1.225c-.016-.063-.031-.11-.047-.188a4.007,4.007,0,0,0-3.863-2.732,2.537,2.537,0,0,0-.471.031,4.13,4.13,0,0,0-3.078,2.434,3.745,3.745,0,0,0-.267,1.335,3.912,3.912,0,0,0,2.2,3.407,4.054,4.054,0,0,0,1.711.377,3.8,3.8,0,0,0,3.815-2.92Z" transform="translate(-458.554 -292.898)"></path><path class="sl" d="M600.539,290.794a2.2,2.2,0,0,1-1.727-.722,2.814,2.814,0,0,1-.612-1.868v-7.8h.9v7.8c0,1.162.534,1.759,1.586,1.759h.126l.2-.016v.816l-.173.016a2,2,0,0,1-.3.016" transform="translate(-507.447 -277.134)"></path><path class="sl" d="M35.336,264.97l-10.818.016H24.5a1.317,1.317,0,0,1-1.335-1.3,1.3,1.3,0,0,1,1.319-1.287h10.85v.016a1.3,1.3,0,0,1,1.209,1.287,1.321,1.321,0,0,1-1.209,1.272m-1.492,4.349-7.552.016h-.031a1.3,1.3,0,1,1,0-2.591h7.584v.016a1.282,1.282,0,0,1,0,2.559m-4.019,7.615a3.047,3.047,0,1,1,3.14-3.046,3.1,3.1,0,0,1-3.14,3.046m9.326-14.555a4.1,4.1,0,0,0-2.418-2.449,12.331,12.331,0,0,0-3.894-.33h-6a12.437,12.437,0,0,0-3.894.33,4.058,4.058,0,0,0-2.418,2.449,12.663,12.663,0,0,0-.33,3.941v6.092a12.662,12.662,0,0,0,.33,3.941,4.1,4.1,0,0,0,2.418,2.449,12.33,12.33,0,0,0,3.894.33H32.73l.016-.063a14.993,14.993,0,0,0,.141-1.978,5.481,5.481,0,0,1,.2-1.68v-.031a4.467,4.467,0,0,1,2.685-2.716H35.8a7.8,7.8,0,0,1,2.073-.267c.44-.016.958-.031,1.554-.094h.047v-6a12.6,12.6,0,0,0-.33-3.925" transform="translate(-20.2 -259.6)"></path><path class="sl" d="M109.365,343.5a14.862,14.862,0,0,1-6.265,6.359c.251-1.884.016-2.606.33-3.58a4.1,4.1,0,0,1,2.418-2.449,18.216,18.216,0,0,1,3.517-.33Z" transform="translate(-90.084 -330.327)"></path><path class="sl" d="M611.838,280.228a.234.234,0,0,0,.11-.016.1.1,0,0,0,.047-.094.058.058,0,0,0-.016-.047l-.031-.031c-.016,0-.031-.016-.047-.016h-.188v.2Zm.016-.314a.524.524,0,0,1,.236.047.245.245,0,0,1,.062.267.216.216,0,0,1-.047.063.119.119,0,0,1-.063.031.141.141,0,0,1-.079.016l.2.33h-.157l-.188-.33h-.11v.33h-.157V279.9h.3Zm-.518.6a.473.473,0,0,0,.283.283.466.466,0,0,0,.408,0,.472.472,0,0,0,.283-.283.538.538,0,0,0,0-.44.472.472,0,0,0-.283-.283.466.466,0,0,0-.408,0,.473.473,0,0,0-.283.283.5.5,0,0,0-.047.22l.047.22m-.173-.5a1.11,1.11,0,0,1,.157-.22.593.593,0,0,1,.235-.141.8.8,0,0,1,.267-.047.735.735,0,0,1,.267.047.726.726,0,0,1,.235.141.564.564,0,0,1,.157.22.667.667,0,0,1,0,.565,1.106,1.106,0,0,1-.157.22.591.591,0,0,1-.235.141.8.8,0,0,1-.267.047.733.733,0,0,1-.267-.047.725.725,0,0,1-.235-.141.562.562,0,0,1-.157-.22.537.537,0,0,1-.063-.283,1.255,1.255,0,0,1,.063-.283" transform="translate(-518.322 -276.46)"></path></g></svg>