<svg xmlns="http://www.w3.org/2000/svg" width="40" height="40" viewBox="0 0 40 40"><defs><style>.a{fill:#fff;}.b{fill:#09357a;}</style></defs><path class="a" d="M513.33,488.07a20,20,0,1,1-20,20,20,20,0,0,1,20-20Z" transform="translate(-493.33 -488.07)"/><path class="b" d="M521.54,503a6.9,6.9,0,0,1-1.94.53,3.33,3.33,0,0,0,1.48-1.86,6.819,6.819,0,0,1-2.13.82,3.37,3.37,0,0,0-5.83,2.3,3.22,3.22,0,0,0,.09.76,9.54,9.54,0,0,1-6.94-3.51,3.36,3.36,0,0,0,1,4.49,3.24,3.24,0,0,1-1.52-.42v.05a3.37,3.37,0,0,0,2.7,3.3,3.8,3.8,0,0,1-.89.11,3.361,3.361,0,0,1-.63-.06,3.37,3.37,0,0,0,3.14,2.34,6.75,6.75,0,0,1-4.18,1.44,5.287,5.287,0,0,1-.8,0,9.57,9.57,0,0,0,14.74-7.93v-.57a6.78,6.78,0,0,0,1.68-1.74Z" transform="translate(-493.33 -488.07)"/></svg>