<svg xmlns="http://www.w3.org/2000/svg" width="40" height="40" viewBox="0 0 40 40"><defs><style>.a{fill:#fff;}.b{fill:#09357a;}</style></defs><circle class="a" cx="20" cy="20" r="20"/><path class="b" d="M513.33,515.25h0c-.05,0-4.82,0-6.27-.2h-.28a2.63,2.63,0,0,1-1.76-.83,4.87,4.87,0,0,1-.73-2c-.12-1.1-.18-2.2-.19-3.3v-1.53c0-1.64.19-3.31.19-3.33a4.56,4.56,0,0,1,.73-2,2.54,2.54,0,0,1,1.79-.85h.06c2.55-.19,6.42-.23,6.46-.23s3.92,0,6.46.23h.09a2.35,2.35,0,0,1,1.76.84,4.87,4.87,0,0,1,.73,2s.19,1.69.19,3.33v1.53c0,1.61-.19,3.28-.19,3.3a4.86,4.86,0,0,1-.73,2,2.53,2.53,0,0,1-1.79.84h-.05C517.24,515.25,513.37,515.25,513.33,515.25Zm-2.23-10.48v7.09l6-3.46Z" transform="translate(-493.33 -488.07)"/></svg>